<svg xmlns="http://www.w3.org/2000/svg" viewBox="0 0 320 400" width="100%" height="100%">
  <defs>
    <linearGradient id="coverGrad" x1="0%" y1="0%" x2="0%" y2="100%">
      <stop offset="0%" stop-color="#6d28d9" />
      <stop offset="65%" stop-color="#4c1d95" />
      <stop offset="100%" stop-color="#000000" />
    </linearGradient>
    <radialGradient id="highlightGlow" cx="50%" cy="30%" r="60%">
      <stop offset="0%" stop-color="#64748b" stop-opacity="0.32" />
      <stop offset="100%" stop-color="#64748b" stop-opacity="0" />
    </radialGradient>
  </defs>

  <!-- Outer frame -->
  <rect width="320" height="400" fill="#09090b" rx="14" stroke="rgba(255,255,255,0.09)" stroke-width="3" />
  
  <!-- Interactive artwork area -->
  <rect x="12" y="12" width="296" height="376" rx="8" fill="url(#coverGrad)" />
  <rect x="12" y="12" width="296" height="376" rx="8" fill="url(#highlightGlow)" />

  <!-- Retro console banner tag -->
  <path d="M 12 12 L 308 12 L 308 55 L 12 55 Z" fill="#000000" fill-opacity="0.8" />
  
  <text x="24" y="38" fill="#64748b" font-family="monospace" font-weight="900" font-size="12" letter-spacing="1.5">SATURN</text>
  <text x="296" y="38" fill="#a1a1aa" font-family="'Space Grotesk', system-ui, sans-serif" font-weight="bold" font-size="10" text-anchor="end" letter-spacing="1">EDICAO CLASSICA</text>

  <!-- Horizontal divider line from console border color -->
  <line x1="12" y1="55" x2="308" y2="55" stroke="#64748b" stroke-width="2" />

  <!-- Grid decoration pattern overlay -->
  <g opacity="0.08">
    <line x1="12" y1="120" x2="308" y2="120" stroke="#ffffff" stroke-width="1" />
    <line x1="12" y1="180" x2="308" y2="180" stroke="#ffffff" stroke-width="1" />
    <line x1="12" y1="240" x2="308" y2="240" stroke="#ffffff" stroke-width="1" />
    <line x1="12" y1="300" x2="308" y2="300" stroke="#ffffff" stroke-width="1" />
    <line x1="60" y1="55" x2="60" y2="388" stroke="#ffffff" stroke-width="1" stroke-dasharray="2, 6" />
    <line x1="160" y1="55" x2="160" y2="388" stroke="#ffffff" stroke-width="1" />
    <line x1="260" y1="55" x2="260" y2="388" stroke="#ffffff" stroke-width="1" stroke-dasharray="2, 6" />
  </g>

  <!-- Central Vector cartridge art / Gamepad outline -->
  <g transform="translate(160, 185)" stroke="rgba(255,255,255,0.08)" stroke-width="2" fill="none">
    <rect x="-40" y="-30" width="80" height="60" rx="8" />
    <circle cx="-15" cy="0" r="12" />
    <circle cx="15" cy="0" r="12" />
    <path d="M-40 0 L-27 0 M27 0 L40 0 M0 -30 L0 -18 M0 18 L0 30" stroke-opacity="0.12" />
  </g>

  <!-- Game title layout -->
  <g transform="translate(160, 290)">
    <!-- Main Big Title -->
    <text x="0" y="0" fill="#ffffff" font-family="'Space Grotesk', system-ui, sans-serif" font-weight="900" font-size="18" text-anchor="middle" letter-spacing="-0.5" opacity="0.95">GUARDIAN HEROES</text>
    
    <!-- Subtitle metadata -->
    <text x="0" y="24" fill="#c084fc" font-family="monospace" font-weight="bold" font-size="10" text-anchor="middle" letter-spacing="2">BEAT 'EM UP</text>
  </g>

  <!-- Footer box metadata -->
  <g transform="translate(24, 365)">
    <!-- Developer brand text -->
    <text x="0" y="0" fill="#a1a1aa" font-family="monospace" font-weight="bold" font-size="9" opacity="0.8">TREASURE</text>
    <text x="0" y="12" fill="#71717a" font-family="monospace" font-size="8">SEGA &bull; 1996</text>
    
    <!-- Player Capacity Seal right -->
    <rect x="180" y="-12" width="90" height="20" rx="4" fill="none" stroke="rgba(255,255,255,0.15)" stroke-width="1" />
    <text x="225" y="1" fill="#a1a1aa" font-family="monospace" font-weight="bold" font-size="8" text-anchor="middle" letter-spacing="0.5">1-2 JOGADORES</text>
  </g>
</svg>