<svg xmlns="http://www.w3.org/2000/svg" viewBox="0 0 640 480" width="100%" height="100%">
  <!-- Screen boundary representing Arcade cabinet vector layout -->
  <rect width="640" height="480" fill="#020205" />
  
  <!-- Subtle CRT Scanlines -->
  <g opacity="0.06">
    <line x1="0" y1="10" x2="640" y2="10" stroke="#ffffff" stroke-width="2" />
    <line x1="0" y1="20" x2="640" y2="20" stroke="#ffffff" stroke-width="2" />
    <line x1="0" y1="30" x2="640" y2="30" stroke="#ffffff" stroke-width="2" />
    <line x1="0" y1="40" x2="640" y2="40" stroke="#ffffff" stroke-width="2" />
    <line x1="0" y1="50" x2="640" y2="50" stroke="#ffffff" stroke-width="2" />
    <line x1="0" y1="60" x2="640" y2="60" stroke="#ffffff" stroke-width="2" />
    <line x1="0" y1="70" x2="640" y2="70" stroke="#ffffff" stroke-width="2" />
    <line x1="0" y1="80" x2="640" y2="80" stroke="#ffffff" stroke-width="2" />
    <line x1="0" y1="90" x2="640" y2="90" stroke="#ffffff" stroke-width="2" />
    <line x1="0" y1="100" x2="640" y2="100" stroke="#ffffff" stroke-width="2" />
    <line x1="0" y1="110" x2="640" y2="110" stroke="#ffffff" stroke-width="2" />
    <line x1="0" y1="120" x2="640" y2="120" stroke="#ffffff" stroke-width="2" />
    <line x1="0" y1="130" x2="640" y2="130" stroke="#ffffff" stroke-width="2" />
    <line x1="0" y1="140" x2="640" y2="140" stroke="#ffffff" stroke-width="2" />
    <line x1="0" y1="150" x2="640" y2="150" stroke="#ffffff" stroke-width="2" />
    <line x1="0" y1="160" x2="640" y2="160" stroke="#ffffff" stroke-width="2" />
    <line x1="0" y1="170" x2="640" y2="170" stroke="#ffffff" stroke-width="2" />
    <line x1="0" y1="180" x2="640" y2="180" stroke="#ffffff" stroke-width="2" />
    <line x1="0" y1="190" x2="640" y2="190" stroke="#ffffff" stroke-width="2" />
    <line x1="0" y1="200" x2="640" y2="200" stroke="#ffffff" stroke-width="2" />
    <line x1="0" y1="210" x2="640" y2="210" stroke="#ffffff" stroke-width="2" />
    <line x1="0" y1="220" x2="640" y2="220" stroke="#ffffff" stroke-width="2" />
    <line x1="0" y1="230" x2="640" y2="230" stroke="#ffffff" stroke-width="2" />
    <line x1="0" y1="240" x2="640" y2="240" stroke="#ffffff" stroke-width="2" />
    <line x1="0" y1="250" x2="640" y2="250" stroke="#ffffff" stroke-width="2" />
    <line x1="0" y1="260" x2="640" y2="260" stroke="#ffffff" stroke-width="2" />
    <line x1="0" y1="270" x2="640" y2="270" stroke="#ffffff" stroke-width="2" />
    <line x1="0" y1="280" x2="640" y2="280" stroke="#ffffff" stroke-width="2" />
    <line x1="0" y1="290" x2="640" y2="290" stroke="#ffffff" stroke-width="2" />
    <line x1="0" y1="300" x2="640" y2="300" stroke="#ffffff" stroke-width="2" />
    <line x1="0" y1="310" x2="640" y2="310" stroke="#ffffff" stroke-width="2" />
    <line x1="0" y1="320" x2="640" y2="320" stroke="#ffffff" stroke-width="2" />
    <line x1="0" y1="330" x2="640" y2="330" stroke="#ffffff" stroke-width="2" />
    <line x1="0" y1="340" x2="640" y2="340" stroke="#ffffff" stroke-width="2" />
    <line x1="0" y1="350" x2="640" y2="350" stroke="#ffffff" stroke-width="2" />
    <line x1="0" y1="360" x2="640" y2="360" stroke="#ffffff" stroke-width="2" />
    <line x1="0" y1="370" x2="640" y2="370" stroke="#ffffff" stroke-width="2" />
    <line x1="0" y1="380" x2="640" y2="380" stroke="#ffffff" stroke-width="2" />
    <line x1="0" y1="390" x2="640" y2="390" stroke="#ffffff" stroke-width="2" />
    <line x1="0" y1="400" x2="640" y2="400" stroke="#ffffff" stroke-width="2" />
    <line x1="0" y1="410" x2="640" y2="410" stroke="#ffffff" stroke-width="2" />
    <line x1="0" y1="420" x2="640" y2="420" stroke="#ffffff" stroke-width="2" />
    <line x1="0" y1="430" x2="640" y2="430" stroke="#ffffff" stroke-width="2" />
    <line x1="0" y1="440" x2="640" y2="440" stroke="#ffffff" stroke-width="2" />
    <line x1="0" y1="450" x2="640" y2="450" stroke="#ffffff" stroke-width="2" />
    <line x1="0" y1="460" x2="640" y2="460" stroke="#ffffff" stroke-width="2" />
    <line x1="0" y1="470" x2="640" y2="470" stroke="#ffffff" stroke-width="2" />
  </g>

  <!-- Interactive Mock Elements representing Game UI based on genre -->
  <!-- Top HUD Bar -->
  <rect x="20" y="15" width="600" height="40" fill="none" stroke="rgba(255,255,255,0.08)" stroke-width="1.5" />
  <text x="35" y="40" fill="#ffffff" font-family="monospace" font-size="14" font-weight="900" letter-spacing="1">SCORE: 046200</text>
  <text x="320" y="40" fill="#3b82f6" font-family="monospace" font-size="14" font-weight="900" letter-spacing="2" text-anchor="middle">STATION AÇÃO</text>
  <text x="605" y="40" fill="#ffffff" font-family="monospace" font-size="14" font-weight="900" letter-spacing="1" text-anchor="end">STAGE 02-1</text>

  <!-- Level Grid decoration inside SVG mockup -->
  <g opacity="0.1">
    <ellipse cx="320" cy="240" rx="200" ry="120" fill="none" stroke="#ffffff" stroke-width="2" />
    <ellipse cx="320" cy="240" rx="140" ry="84" fill="none" stroke="#ffffff" stroke-width="1" />
    <line x1="120" y1="240" x2="520" y2="240" stroke="#ffffff" stroke-width="1" />
    <line x1="320" y1="120" x2="320" y2="360" stroke="#ffffff" stroke-width="1" />
  </g>

  <!-- Central Gameplay Scene Outline elements -->
  <circle cx="320" cy="220" r="45" fill="none" stroke="#3b82f6" stroke-dasharray="8,4" stroke-width="2.5" />
  <line x1="160" y1="220" x2="480" y2="220" stroke="#3b82f6" stroke-dasharray="4,8" stroke-opacity="0.3" stroke-width="1.5" />

  <!-- Bottom platform details -->
  <line x1="20" y1="400" x2="620" y2="400" stroke="#ffffff" stroke-opacity="0.15" stroke-width="2" />
  <rect x="40" y="400" width="120" height="60" fill="none" stroke="#ffffff" stroke-opacity="0.08" stroke-width="1" />
  <rect x="480" y="400" width="120" height="60" fill="none" stroke="#ffffff" stroke-opacity="0.08" stroke-width="1" />

  <text x="320" y="420" fill="#a1a1aa" font-family="monospace" font-size="10" text-anchor="middle" letter-spacing="0.5" opacity="0.3">EMULACAO INTEGRADA DE ALTA FIELIDADE DE CORES</text>
  <text x="320" y="435" fill="#a1a1aa" font-family="monospace" font-size="9" text-anchor="middle" opacity="0.2">AUDIO ONDA SENOIDAL SINTETIZADO INTERACTIVO EM TEMPO REAL</text>
</svg>